<svg id="Capa_1" enable-background="new 0 0 512 512" height="512" viewBox="0 0 512 512" width="512" xmlns="http://www.w3.org/2000/svg"><g><g><g><g><g><g><g><circle cx="256" cy="256" fill="#ffce00" r="256"/></g></g></g></g></g></g><path d="m511.391 273.787-160.932-160.932-4.16 26.405-90.299-90.3-5.622 152.732-88.837-88.837-58.538 291.406 103.042 102.868c16.157 3.195 32.86 4.871 49.955 4.871 135.406 0 246.258-105.126 255.391-238.213z" fill="#ffa300"/><g><path d="m350.459 112.855s-16.64 20.428-36.152 46.624c-26.26-55.098-58.307-110.519-58.307-110.519s-32.048 55.421-58.307 110.518c-19.512-26.196-36.152-46.624-36.152-46.624s-49.905 131.876-43.845 167.905c6.06 36.028 42.482 60.681 81.349 55.063 5.724-.827 11.182-2.266 16.309-4.231 12.256 5.606 26.054 8.756 40.646 8.756s28.389-3.15 40.646-8.756c5.127 1.965 10.585 3.403 16.309 4.231 38.868 5.618 75.289-19.035 81.349-55.063s-43.845-167.904-43.845-167.904z" fill="#ff6c52"/></g><g><path d="m350.459 112.855s-16.64 20.428-36.152 46.624c-26.074-54.708-57.848-109.743-58.307-110.519v291.388c14.598-.001 28.392-3.151 40.646-8.756 5.127 1.965 10.585 3.404 16.309 4.231 38.868 5.618 75.289-19.035 81.349-55.063 6.06-36.029-43.845-167.905-43.845-167.905z" fill="#ff432e"/></g><g><path d="m323.245 199.605s-11.846 14.543-25.736 33.191c-18.694-39.224-41.509-78.678-41.509-78.678s-22.814 39.454-41.509 78.678c-13.891-18.648-25.736-33.191-25.736-33.191s-35.527 93.882-31.213 119.531c4.314 25.648 30.242 43.199 57.912 39.199 4.075-.589 7.96-1.613 11.61-3.012 8.725 3.991 18.548 6.233 28.936 6.233s20.21-2.243 28.935-6.233c3.65 1.399 7.535 2.423 11.61 3.012 27.67 3.999 53.598-13.551 57.912-39.199 4.315-25.649-31.212-119.531-31.212-119.531z" fill="#ff432e"/></g><g><path d="m323.245 199.604s-11.846 14.543-25.736 33.191c-18.509-38.833-41.062-77.904-41.509-78.677l.01 207.437c10.384-.002 20.203-2.244 28.925-6.233 3.65 1.399 7.535 2.423 11.61 3.012 27.67 3.999 53.598-13.551 57.912-39.199 4.315-25.648-31.212-119.531-31.212-119.531z" fill="#db0404"/></g><g><g><path d="m377.951 417.101h-243.902c-24.274 0-43.953-19.678-43.953-43.953v-65.601c0-24.275 19.679-43.953 43.953-43.953h243.901c24.274 0 43.953 19.678 43.953 43.953v65.601c.001 24.275-19.678 43.953-43.952 43.953z" fill="#636978"/></g><g><path d="m377.951 263.595h-121.941v153.507h121.94c24.274 0 43.953-19.678 43.953-43.953v-65.601c.001-24.275-19.678-43.953-43.952-43.953z" fill="#414952"/></g><g><g><g><path d="m117.186 315.691 27.017 20.195 54.035-72.291h-42.112z" fill="#555a66"/></g><g><path d="m377.951 263.595h-40.24l-38.94 52.096 27.017 20.195 54.006-72.252c-.611-.026-1.226-.039-1.843-.039z" fill="#333940"/></g><g><path d="m246.918 263.595-38.94 52.096 27.017 20.195 54.035-72.291z" fill="#555a66"/></g><g><path d="m256.01 263.595v44.175l33.02-44.175z" fill="#333940"/></g></g><g><g><path d="m132.206 417.063c.611.025 1.225.039 1.843.039h40.24l38.94-52.096-27.017-20.195z" fill="#555a66"/></g><g><path d="m313.762 417.101h42.112l38.94-52.096-27.017-20.195z" fill="#333940"/></g><g><path d="m222.969 417.101h42.113l38.94-52.096-27.017-20.195z" fill="#555a66"/></g><g><path d="m304.022 365.005-27.017-20.195-20.995 28.087v44.204h9.072z" fill="#333940"/></g></g></g></g></g></svg>