<svg id="Layer_1" enable-background="new 0 0 510.025 510.025" height="512" viewBox="0 0 510.025 510.025" width="512" xmlns="http://www.w3.org/2000/svg"><g><g><g><g><g><path d="m255.025.013c-98.131 0-158.58 55.352-158.747 55.445 0 0-2.513 3.137-2.983 5.222-3.818 16.948-7.385 39.663-7.385 56.238 0 140.833 118.763 254.972 259.596 254.972 54.231 0 114.568-25.992 154.949-57.243.903-.699 3.769-5.396 3.769-5.396.178-1.087 5.8-23.477 5.8-54.239.001-140.832-114.166-254.999-254.999-254.999z" fill="#c1f8f4"/></g></g></g><g><g><g><g><path d="m504.225 309.251c-43.559 34.696-98.724 55.441-158.741 55.441-140.833 0-255-114.167-255-255 0-18.615 2.007-36.753 5.795-54.234-.006.005.006-.005 0 0-58.645 46.72-96.254 118.747-96.254 199.555 0 140.833 114.167 255 255 255 121.17 0 224.117-84.98 249.2-200.762z" fill="#93ede7"/></g></g></g></g></g><g><g><g><path d="m465.32 103.273c2.036-6.037 3.072-12.534 2.91-19.294-.719-30.05-25.547-54.444-55.605-54.661-21.672-.157-40.522 11.99-49.98 29.87-7.403-3.054-15.603-4.569-24.201-4.145-28.999 1.432-52.343 25.305-53.171 54.328-.04 1.399-.029 2.787.032 4.162-10.733 4.686-18.235 15.394-18.235 27.854 0 16.778 13.601 30.379 30.379 30.379h156.06c16.778 0 30.379-13.601 30.379-30.379 0-10.818-5.655-20.316-14.17-25.698-4.151-2.624-5.968-7.761-4.398-12.416z" fill="#fff"/></g></g></g><g><g><g><path d="m111.344 87.091 6.143 114.995h346.184l8.31-10.995-334.314-139.919c-16.205 4.182-27.216 19.207-26.323 35.919z" fill="#8bc852"/></g></g></g><g><path d="m146.154 130.684c-33.152-13.916-37.954-58.913-8.487-79.513l-22.836-9.558c-12.05 7.926-18.498 13.814-18.552 13.844-44.988 35.841-77.582 86.579-90.329 144.745l119.768 7.5 190.539-5.615z" fill="#5ea55c"/></g><g><g><g><path d="m504.523 202.087c-4.689-22.212-12.267-43.359-22.326-63.027-26.995-1.143-54.363 8.583-74.975 29.195l-33.832 33.832z" fill="#aad540"/></g></g></g><g><path d="m504.101 200.204h-498.142c-1.075 4.904-2.009 9.86-2.797 14.865l-.678 4.592c-1.359 9.204-2.187 18.465-2.484 27.738l4.526 55.495c19.498 102.627 100.491 183.473 203.197 202.739l261.205-118.318 31.199-61.771c1.537-5.358 2.905-10.79 4.097-16.293.049-.298.506-2.194 1.144-5.424l4.654-49.856c-.073-18.452-2.125-36.436-5.921-53.767z" fill="#05cdff"/></g><g><g><g><path d="m.138 247.404c-.074 2.527-.112 5.064-.112 7.609 0 16.368 1.561 32.37 4.508 47.88 0 0 454.266-2.577 454.415-28.09.182-31.31-458.811-27.399-458.811-27.399z" fill="#00aff4"/></g></g></g><g><g><g><path d="m415.495 451.018s-326.741-2.668-326.741-26.278c0-26.278 326.741-26.278 326.741-26.278z" fill="#6ee1ff"/></g></g></g><g><g><path d="m477.955 373.178h-318.158c-7.709 0-13.959-6.25-13.959-13.959 0-7.709 6.25-13.959 13.959-13.959h318.158z" fill="#00aff4"/></g></g><g><path d="m491.222 341.635-47.945 12.432c-87.918 22.797-166.799 71.852-226.126 140.625l-9.424 10.924c15.329 2.875 31.135 4.396 47.299 4.396 108.464 0 202.323-68.095 238.806-165.421z" fill="#aad540"/></g><g><g><path d="m255.572 268.972h20v90.771h-20z" fill="#523838"/></g></g><g><g><path d="m378.599 268.972h20v90.771h-20z" fill="#523838"/></g></g><g><g><path d="m317.086 249.063h19.999v133.447h-19.999z" fill="#523838" transform="matrix(.387 -.922 .922 .387 -90.752 495.003)"/></g></g><g><g><path d="m260.362 305.787h133.447v19.999h-133.447z" fill="#523838" transform="matrix(.922 -.387 .387 .922 -96.797 151.379)"/></g></g><g><path d="m500.127 325.544-106.673-44.823-7.748 18.438 108.129 45.435c2.336-6.234 4.437-12.587 6.292-19.05z" fill="#523838"/></g><g><path d="m508.742 280.741-.009-.02-123.027 51.695 7.748 18.438 111.915-47.026c.972-4.918 2.364-12.927 3.373-23.087z" fill="#523838"/></g><g><path d="m221.003 268.972c0 8.284 6.716 15 15 15h272.398c.919-8.22 1.624-18.064 1.624-28.959 0-.347-.001-.694-.002-1.041h-274.02c-8.284 0-15 6.715-15 15z" fill="#664545"/></g></g></svg>