<svg xmlns="http://www.w3.org/2000/svg" height="512pt" version="1.1" viewBox="0 0 512 512" width="512pt">
<g id="surface1">
<path d="M 512 256 C 512 397.386719 397.386719 512 256 512 C 114.613281 512 0 397.386719 0 256 C 0 114.613281 114.613281 0 256 0 C 397.386719 0 512 114.613281 512 256 Z M 512 256 " style=" stroke:none;fill-rule:nonzero;fill:rgb(20.784314%,78.823529%,72.156863%);fill-opacity:1;" />
<path d="M 0 256 C 0 282.050781 3.890625 307.191406 11.128906 330.871094 C 43.140625 435.71875 140.671875 512 256 512 C 360.558594 512 450.488281 449.300781 490.230469 359.449219 C 504.230469 327.820312 512 292.820312 512 256 C 512 209.78125 499.75 166.429688 478.320312 129 C 434.199219 206.070312 351.160156 258 256 258 C 160.839844 258 77.789062 206.070312 33.679688 129 C 12.25 166.429688 0 209.78125 0 256 Z M 0 256 " style=" stroke:none;fill-rule:nonzero;fill:rgb(50.588235%,88.627451%,82.352941%);fill-opacity:1;" />
<path d="M 354.011719 174.15625 C 354.007812 174.078125 354.003906 174.007812 354.003906 173.929688 C 354.003906 160.101562 365.214844 148.890625 379.046875 148.890625 C 382.332031 148.890625 385.464844 149.527344 388.339844 150.679688 C 393.894531 140.730469 404.519531 134 416.71875 134 C 432.566406 134 445.753906 145.347656 448.621094 160.359375 C 449.476562 160.234375 450.347656 160.171875 451.238281 160.171875 C 459.851562 160.171875 467.070312 166.132812 469 174.15625 Z M 354.011719 174.15625 " style=" stroke:none;fill-rule:nonzero;fill:rgb(100%,100%,100%);fill-opacity:1;" />
<path d="M 72.007812 204.15625 C 72.003906 204.078125 72 204.007812 72 203.929688 C 72 190.101562 83.210938 178.890625 97.039062 178.890625 C 100.328125 178.890625 103.460938 179.527344 106.335938 180.679688 C 111.890625 170.730469 122.515625 164 134.714844 164 C 150.5625 164 163.75 175.347656 166.617188 190.359375 C 167.472656 190.234375 168.34375 190.171875 169.234375 190.171875 C 177.847656 190.171875 185.066406 196.132812 186.996094 204.15625 Z M 72.007812 204.15625 " style=" stroke:none;fill-rule:nonzero;fill:rgb(100%,100%,100%);fill-opacity:1;" />
<path d="M 184.511719 90.273438 C 184.507812 90.171875 184.503906 90.070312 184.503906 89.972656 C 184.503906 71.449219 199.515625 56.4375 218.035156 56.4375 C 222.4375 56.4375 226.632812 57.292969 230.484375 58.832031 C 237.917969 45.511719 252.148438 36.496094 268.488281 36.496094 C 289.707031 36.496094 307.367188 51.691406 311.207031 71.796875 C 312.351562 71.632812 313.519531 71.542969 314.710938 71.542969 C 326.246094 71.542969 335.914062 79.527344 338.496094 90.273438 Z M 184.511719 90.273438 " style=" stroke:none;fill-rule:nonzero;fill:rgb(100%,100%,100%);fill-opacity:1;" />
<path d="M 11.128906 330.871094 C 11.460938 331.960938 11.800781 333.050781 12.160156 334.140625 C 12.328125 334.691406 12.511719 335.25 12.699219 335.800781 C 12.738281 335.960938 12.789062 336.109375 12.851562 336.261719 C 13.058594 336.929688 13.289062 337.601562 13.519531 338.269531 C 13.550781 338.390625 13.589844 338.511719 13.640625 338.628906 C 13.851562 339.25 14.070312 339.878906 14.28125 340.5 C 14.730469 341.78125 15.191406 343.058594 15.660156 344.328125 C 16.03125 345.371094 16.421875 346.398438 16.820312 347.429688 C 17.261719 348.601562 17.71875 349.769531 18.191406 350.941406 C 18.300781 351.210938 18.410156 351.480469 18.519531 351.761719 C 18.941406 352.800781 19.371094 353.839844 19.808594 354.878906 C 20 355.351562 20.191406 355.808594 20.398438 356.28125 C 20.851562 357.359375 21.320312 358.429688 21.789062 359.5 C 22.320312 360.699219 22.871094 361.910156 23.421875 363.101562 C 23.828125 364 24.25 364.890625 24.679688 365.78125 C 25.148438 366.769531 25.621094 367.75 26.101562 368.71875 C 26.179688 368.890625 26.261719 369.050781 26.339844 369.210938 C 26.800781 370.140625 27.261719 371.058594 27.730469 371.980469 C 28.261719 373.019531 28.789062 374.058594 29.339844 375.089844 C 29.960938 376.269531 30.578125 377.441406 31.21875 378.609375 L 31.96875 379.960938 C 32.46875 380.871094 32.96875 381.769531 33.488281 382.660156 C 34.75 384.878906 36.039062 387.070312 37.371094 389.238281 C 37.671875 389.730469 37.96875 390.21875 38.28125 390.710938 C 38.898438 391.71875 39.53125 392.71875 40.171875 393.71875 C 40.230469 393.820312 40.289062 393.910156 40.359375 394.011719 C 41.011719 395.019531 41.660156 396.03125 42.328125 397.039062 C 46.519531 403.378906 50.988281 409.519531 55.71875 415.449219 C 56.238281 416.109375 56.761719 416.761719 57.289062 417.398438 C 58.871094 419.351562 60.480469 421.269531 62.121094 423.171875 C 62.710938 423.859375 63.300781 424.539062 63.898438 425.210938 C 67.261719 429.019531 70.730469 432.730469 74.300781 436.328125 C 75.601562 437.640625 76.910156 438.929688 78.230469 440.199219 C 78.878906 440.839844 79.53125 441.460938 80.191406 442.078125 C 80.28125 442.160156 80.359375 442.238281 80.441406 442.308594 C 81.210938 443.050781 81.988281 443.769531 82.78125 444.488281 C 83.519531 445.179688 84.28125 445.859375 85.03125 446.53125 C 85.609375 447.050781 86.191406 447.570312 86.769531 448.078125 C 87.398438 448.640625 88.03125 449.191406 88.660156 449.730469 C 89.191406 450.191406 89.730469 450.660156 90.269531 451.109375 C 90.488281 451.300781 90.699219 451.480469 90.921875 451.660156 C 91.441406 452.101562 91.960938 452.539062 92.480469 452.96875 C 93.941406 454.179688 95.410156 455.378906 96.890625 456.550781 C 97.371094 456.941406 97.851562 457.320312 98.339844 457.699219 C 98.519531 457.851562 98.710938 457.988281 98.890625 458.128906 L 98.898438 458.128906 C 99.371094 458.511719 99.839844 458.871094 100.320312 459.230469 C 100.96875 459.730469 101.621094 460.230469 102.28125 460.71875 C 103.21875 461.429688 104.160156 462.128906 105.109375 462.820312 C 105.828125 463.351562 106.558594 463.878906 107.289062 464.390625 C 109.171875 465.75 111.078125 467.070312 113 468.359375 C 113.539062 468.71875 114.078125 469.089844 114.628906 469.449219 C 122.308594 474.550781 130.289062 479.25 138.519531 483.511719 C 139.511719 484.019531 140.511719 484.53125 141.511719 485.03125 C 141.648438 485.101562 141.789062 485.171875 141.929688 485.238281 C 143.03125 485.789062 144.128906 486.328125 145.238281 486.859375 C 146.53125 487.480469 147.808594 488.089844 149.109375 488.679688 C 150.140625 489.160156 151.179688 489.628906 152.21875 490.089844 C 152.410156 490.171875 152.601562 490.261719 152.789062 490.339844 C 153.789062 490.78125 154.789062 491.210938 155.789062 491.640625 C 157.339844 492.300781 158.890625 492.941406 160.449219 493.570312 C 161.46875 493.980469 162.5 494.390625 163.519531 494.78125 C 164.800781 495.28125 166.078125 495.761719 167.359375 496.230469 C 168.519531 496.660156 169.691406 497.089844 170.859375 497.5 C 173.378906 498.390625 175.910156 499.238281 178.460938 500.039062 C 178.871094 500.171875 179.28125 500.300781 179.691406 500.429688 C 180.660156 500.730469 181.640625 501.03125 182.621094 501.320312 C 183.910156 501.710938 185.199219 502.089844 186.5 502.449219 C 187.800781 502.820312 189.109375 503.171875 190.421875 503.519531 C 191.378906 503.78125 192.351562 504.019531 193.320312 504.269531 C 193.851562 504.398438 194.390625 504.539062 194.929688 504.671875 C 196.058594 504.941406 197.179688 505.210938 198.308594 505.46875 C 199.308594 505.699219 200.308594 505.929688 201.320312 506.140625 C 202.019531 506.300781 202.71875 506.449219 203.429688 506.589844 C 204.660156 506.851562 205.890625 507.101562 207.128906 507.339844 C 208.199219 507.550781 209.261719 507.75 210.339844 507.941406 C 211.679688 508.179688 213.03125 508.410156 214.390625 508.628906 C 215.230469 508.769531 216.078125 508.910156 216.929688 509.03125 C 217.570312 509.128906 218.21875 509.230469 218.859375 509.320312 C 219.128906 509.359375 219.398438 509.398438 219.671875 509.441406 C 220.628906 509.578125 221.589844 509.710938 222.558594 509.828125 C 223.789062 510 225.019531 510.148438 226.261719 510.289062 C 226.578125 510.328125 226.898438 510.359375 227.21875 510.398438 C 228.289062 510.519531 229.371094 510.628906 230.449219 510.738281 C 230.660156 510.761719 230.871094 510.78125 231.089844 510.800781 C 232.25 510.921875 233.421875 511.019531 234.601562 511.121094 C 236.199219 511.25 237.800781 511.371094 239.398438 511.46875 C 240.460938 511.539062 241.511719 511.601562 242.570312 511.648438 C 242.960938 511.671875 243.351562 511.691406 243.738281 511.710938 C 244.851562 511.761719 245.960938 511.808594 247.070312 511.839844 C 248.25 511.890625 249.429688 511.921875 250.609375 511.941406 C 251.238281 511.960938 251.871094 511.96875 252.511719 511.980469 C 253.671875 511.988281 254.828125 512 256 512 C 257.191406 512 258.378906 511.988281 259.570312 511.96875 C 260.011719 511.96875 260.449219 511.960938 260.890625 511.949219 C 261.769531 511.941406 262.660156 511.921875 263.539062 511.890625 C 264.628906 511.859375 265.71875 511.820312 266.808594 511.78125 C 267.078125 511.761719 267.351562 511.75 267.628906 511.738281 C 268.449219 511.699219 269.28125 511.660156 270.101562 511.621094 C 270.269531 511.609375 270.429688 511.601562 270.601562 511.589844 C 271.410156 511.539062 272.210938 511.5 273.019531 511.441406 C 273.820312 511.390625 274.621094 511.328125 275.421875 511.269531 C 276.648438 511.179688 277.871094 511.078125 279.089844 510.96875 C 279.941406 510.898438 280.789062 510.820312 281.640625 510.730469 C 281.960938 510.699219 282.289062 510.671875 282.609375 510.628906 C 283.679688 510.519531 284.75 510.410156 285.808594 510.28125 C 287.039062 510.140625 288.25 509.988281 289.46875 509.828125 C 290.351562 509.71875 291.21875 509.601562 292.101562 509.46875 C 292.109375 509.46875 292.128906 509.46875 292.140625 509.460938 C 292.820312 509.371094 293.488281 509.269531 294.160156 509.171875 C 294.378906 509.140625 294.609375 509.109375 294.828125 509.070312 C 295.988281 508.898438 297.148438 508.710938 298.300781 508.519531 C 299.648438 508.300781 300.988281 508.058594 302.320312 507.808594 C 303.589844 507.589844 304.859375 507.339844 306.121094 507.089844 C 306.898438 506.941406 307.671875 506.78125 308.441406 506.621094 C 312.289062 505.820312 316.101562 504.941406 319.878906 503.960938 C 320.640625 503.769531 321.390625 503.570312 322.140625 503.371094 C 323.648438 502.96875 325.148438 502.550781 326.648438 502.121094 C 327.398438 501.910156 328.140625 501.691406 328.890625 501.46875 C 331.910156 500.578125 334.910156 499.628906 337.878906 498.621094 C 338.539062 498.398438 339.191406 498.179688 339.839844 497.949219 C 342.070312 497.179688 344.289062 496.378906 346.488281 495.539062 C 347.78125 495.050781 349.058594 494.558594 350.339844 494.050781 C 350.660156 493.929688 350.96875 493.800781 351.28125 493.679688 C 351.839844 493.449219 352.390625 493.230469 352.941406 493 C 354.558594 492.339844 356.171875 491.660156 357.78125 490.960938 C 358.289062 490.738281 358.800781 490.519531 359.308594 490.289062 C 360.910156 489.589844 362.5 488.871094 364.078125 488.128906 C 364.578125 487.890625 365.078125 487.660156 365.578125 487.421875 C 366.53125 486.96875 367.480469 486.511719 368.429688 486.050781 C 368.949219 485.789062 369.480469 485.53125 370 485.28125 C 370.589844 484.980469 371.179688 484.679688 371.761719 484.390625 C 372.441406 484.039062 373.121094 483.691406 373.800781 483.339844 C 375.089844 482.671875 376.371094 481.988281 377.640625 481.300781 C 383.300781 478.238281 388.839844 474.96875 394.230469 471.5 C 395.300781 470.820312 396.359375 470.121094 397.421875 469.421875 C 397.5 469.371094 397.570312 469.320312 397.648438 469.269531 C 398.839844 468.480469 400.019531 467.671875 401.191406 466.859375 C 402.320312 466.078125 403.449219 465.300781 404.558594 464.5 C 404.691406 464.410156 404.820312 464.320312 404.941406 464.230469 C 405.960938 463.5 406.96875 462.761719 407.980469 462.011719 C 408.351562 461.75 408.71875 461.46875 409.078125 461.199219 C 410.101562 460.441406 411.109375 459.671875 412.121094 458.898438 C 412.210938 458.828125 412.289062 458.761719 412.371094 458.699219 C 413.449219 457.859375 414.53125 457.019531 415.601562 456.160156 C 415.671875 456.109375 415.738281 456.058594 415.800781 456 C 415.929688 455.898438 416.058594 455.789062 416.191406 455.679688 C 417.101562 454.960938 418 454.230469 418.890625 453.488281 C 419.121094 453.300781 419.351562 453.121094 419.570312 452.929688 C 420.441406 452.199219 421.308594 451.46875 422.171875 450.738281 C 423.589844 449.53125 424.988281 448.300781 426.371094 447.070312 C 427.351562 446.191406 428.320312 445.308594 429.289062 444.421875 C 431.621094 442.28125 433.910156 440.101562 436.148438 437.871094 C 436.261719 437.761719 436.371094 437.648438 436.488281 437.539062 L 436.488281 437.53125 C 437.160156 436.871094 437.828125 436.199219 438.488281 435.519531 L 438.730469 435.28125 C 439.121094 434.878906 439.511719 434.480469 439.890625 434.078125 C 441.730469 432.199219 443.519531 430.289062 445.28125 428.351562 C 447.460938 425.96875 449.578125 423.550781 451.660156 421.089844 C 452.429688 420.171875 453.210938 419.238281 453.96875 418.300781 C 454.359375 417.839844 454.738281 417.371094 455.109375 416.898438 C 456.910156 414.691406 458.660156 412.449219 460.378906 410.179688 C 461.128906 409.171875 461.890625 408.171875 462.628906 407.148438 C 462.75 406.980469 462.878906 406.808594 463 406.640625 C 463.78125 405.570312 464.558594 404.488281 465.320312 403.398438 C 465.46875 403.191406 465.621094 402.988281 465.75 402.78125 C 466.46875 401.769531 467.179688 400.75 467.871094 399.71875 C 468.621094 398.628906 469.351562 397.53125 470.078125 396.421875 C 470.429688 395.878906 470.789062 395.339844 471.140625 394.789062 C 471.78125 393.800781 472.421875 392.800781 473.039062 391.800781 C 473.050781 391.78125 473.070312 391.761719 473.078125 391.738281 C 473.808594 390.578125 474.53125 389.398438 475.25 388.21875 C 475.371094 388.019531 475.488281 387.820312 475.609375 387.621094 C 476.21875 386.601562 476.828125 385.570312 477.429688 384.539062 C 477.441406 384.519531 477.449219 384.511719 477.449219 384.5 C 477.75 383.980469 478.050781 383.46875 478.339844 382.949219 C 479.550781 380.859375 480.71875 378.738281 481.851562 376.609375 C 482.101562 376.160156 482.339844 375.699219 482.578125 375.238281 C 483.300781 373.890625 484 372.53125 484.679688 371.160156 C 485.089844 370.371094 485.488281 369.578125 485.871094 368.78125 C 486.128906 368.261719 486.378906 367.75 486.621094 367.230469 C 486.640625 367.199219 486.660156 367.171875 486.671875 367.140625 C 487.210938 366.03125 487.738281 364.910156 488.261719 363.789062 C 488.328125 363.648438 488.390625 363.511719 488.460938 363.359375 C 489.058594 362.058594 489.648438 360.761719 490.230469 359.449219 L 373.730469 229.359375 L 311.800781 160.199219 L 229.460938 256.640625 L 195 297 L 116 226 Z M 11.128906 330.871094 " style=" stroke:none;fill-rule:nonzero;fill:rgb(77.254902%,34.509804%,20.784314%);fill-opacity:1;" />
<path d="M 308 326 L 342.828125 418.238281 L 357.398438 456.839844 L 368.429688 486.050781 C 368.949219 485.789062 369.480469 485.53125 370 485.28125 C 370.589844 484.980469 371.179688 484.679688 371.761719 484.390625 C 372.441406 484.039062 373.121094 483.691406 373.800781 483.339844 C 375.089844 482.671875 376.371094 481.988281 377.640625 481.300781 C 383.300781 478.238281 388.839844 474.96875 394.230469 471.5 C 395.300781 470.820312 396.359375 470.121094 397.421875 469.421875 C 397.5 469.371094 397.570312 469.320312 397.648438 469.269531 C 398.839844 468.480469 400.019531 467.671875 401.191406 466.859375 C 402.320312 466.078125 403.449219 465.300781 404.558594 464.5 C 404.691406 464.410156 404.820312 464.320312 404.941406 464.230469 C 405.960938 463.5 406.96875 462.761719 407.980469 462.011719 C 408.351562 461.75 408.71875 461.46875 409.078125 461.199219 C 410.101562 460.441406 411.109375 459.671875 412.121094 458.898438 C 412.210938 458.828125 412.289062 458.761719 412.371094 458.699219 C 413.449219 457.859375 414.53125 457.019531 415.601562 456.160156 C 415.671875 456.109375 415.738281 456.058594 415.800781 456 C 415.929688 455.898438 416.058594 455.789062 416.191406 455.679688 C 417.101562 454.960938 418 454.230469 418.890625 453.488281 C 419.121094 453.300781 419.351562 453.121094 419.570312 452.929688 C 420.441406 452.199219 421.308594 451.46875 422.171875 450.738281 C 423.589844 449.53125 424.988281 448.300781 426.371094 447.070312 C 427.351562 446.191406 428.320312 445.308594 429.289062 444.421875 C 431.621094 442.28125 433.910156 440.101562 436.148438 437.871094 C 436.261719 437.761719 436.371094 437.648438 436.488281 437.539062 L 436.488281 437.53125 C 437.160156 436.871094 437.828125 436.199219 438.488281 435.519531 L 438.730469 435.28125 C 439.121094 434.878906 439.511719 434.480469 439.890625 434.078125 C 441.730469 432.199219 443.519531 430.289062 445.28125 428.351562 C 447.460938 425.96875 449.578125 423.550781 451.660156 421.089844 C 452.429688 420.171875 453.210938 419.238281 453.96875 418.300781 C 454.359375 417.839844 454.738281 417.371094 455.109375 416.898438 C 456.910156 414.691406 458.660156 412.449219 460.378906 410.179688 C 461.128906 409.171875 461.890625 408.171875 462.628906 407.148438 C 462.75 406.980469 462.878906 406.808594 463 406.640625 C 463.78125 405.570312 464.558594 404.488281 465.320312 403.398438 C 465.46875 403.191406 465.621094 402.988281 465.75 402.78125 C 466.46875 401.769531 467.179688 400.75 467.871094 399.71875 C 468.621094 398.628906 469.351562 397.53125 470.078125 396.421875 C 470.429688 395.878906 470.789062 395.339844 471.140625 394.789062 C 471.78125 393.800781 472.421875 392.800781 473.039062 391.800781 C 473.050781 391.78125 473.070312 391.761719 473.078125 391.738281 C 473.808594 390.578125 474.53125 389.398438 475.25 388.21875 C 475.371094 388.019531 475.488281 387.820312 475.609375 387.621094 C 476.21875 386.601562 476.828125 385.570312 477.429688 384.539062 C 477.441406 384.519531 477.449219 384.511719 477.449219 384.5 C 477.75 383.980469 478.050781 383.46875 478.339844 382.949219 C 479.550781 380.859375 480.71875 378.738281 481.851562 376.609375 C 482.101562 376.160156 482.339844 375.699219 482.578125 375.238281 C 483.300781 373.890625 484 372.53125 484.679688 371.160156 C 485.089844 370.371094 485.488281 369.578125 485.871094 368.78125 C 486.128906 368.261719 486.378906 367.75 486.621094 367.230469 C 486.640625 367.199219 486.660156 367.171875 486.671875 367.140625 C 487.210938 366.03125 487.738281 364.910156 488.261719 363.789062 C 488.328125 363.648438 488.390625 363.511719 488.460938 363.359375 C 489.058594 362.058594 489.648438 360.761719 490.230469 359.449219 L 373.730469 229.359375 L 311.800781 160.199219 L 341.828125 243.25 L 375 335 Z M 308 326 " style=" stroke:none;fill-rule:nonzero;fill:rgb(47.843137%,17.647059%,10.196078%);fill-opacity:1;" />
<path d="M 154 299 L 121 297 L 202 384 L 192 331 L 236 333 L 195 297 L 116 226 Z M 154 299 " style=" stroke:none;fill-rule:nonzero;fill:rgb(47.843137%,17.647059%,10.196078%);fill-opacity:1;" />
<path d="M 195 297 L 218 317 L 311.800781 160.199219 Z M 195 297 " style=" stroke:none;fill-rule:nonzero;fill:rgb(91.764706%,50.980392%,30.588235%);fill-opacity:1;" />
<path d="M 11.128906 330.871094 C 17.96875 353.28125 27.808594 374.390625 40.171875 393.71875 L 116 226 Z M 11.128906 330.871094 " style=" stroke:none;fill-rule:nonzero;fill:rgb(91.764706%,50.980392%,30.588235%);fill-opacity:1;" />
<path d="M 74.300781 436.328125 C 75.601562 437.640625 76.910156 438.929688 78.230469 440.199219 C 78.878906 440.839844 79.53125 441.460938 80.191406 442.078125 C 80.28125 442.160156 80.359375 442.238281 80.441406 442.308594 C 81.210938 443.050781 81.988281 443.769531 82.78125 444.488281 C 83.519531 445.179688 84.28125 445.859375 85.03125 446.53125 C 85.609375 447.050781 86.191406 447.570312 86.769531 448.078125 C 87.398438 448.640625 88.03125 449.191406 88.660156 449.730469 C 89.191406 450.191406 89.730469 450.660156 90.269531 451.109375 C 90.488281 451.300781 90.699219 451.480469 90.921875 451.660156 C 91.441406 452.101562 91.960938 452.539062 92.480469 452.96875 C 93.941406 454.179688 95.410156 455.378906 96.890625 456.550781 C 97.371094 456.941406 97.851562 457.320312 98.339844 457.699219 C 98.519531 457.851562 98.710938 457.988281 98.890625 458.128906 L 98.898438 458.128906 C 99.371094 458.511719 99.839844 458.871094 100.320312 459.230469 C 100.96875 459.730469 101.621094 460.230469 102.28125 460.71875 C 103.21875 461.429688 104.160156 462.128906 105.109375 462.820312 C 105.828125 463.351562 106.558594 463.878906 107.289062 464.390625 C 109.171875 465.75 111.078125 467.070312 113 468.359375 C 113.539062 468.71875 114.078125 469.089844 114.628906 469.449219 C 122.308594 474.550781 130.289062 479.25 138.519531 483.511719 C 139.511719 484.019531 140.511719 484.53125 141.511719 485.03125 C 141.648438 485.101562 141.789062 485.171875 141.929688 485.238281 C 143.03125 485.789062 144.128906 486.328125 145.238281 486.859375 C 146.53125 487.480469 147.808594 488.089844 149.109375 488.679688 C 150.140625 489.160156 151.179688 489.628906 152.21875 490.089844 C 152.410156 490.171875 152.601562 490.261719 152.789062 490.339844 C 153.789062 490.78125 154.789062 491.210938 155.789062 491.640625 C 157.339844 492.300781 158.890625 492.941406 160.449219 493.570312 C 161.46875 493.980469 162.5 494.390625 163.519531 494.78125 C 164.800781 495.28125 166.078125 495.761719 167.359375 496.230469 C 168.519531 496.660156 169.691406 497.089844 170.859375 497.5 C 173.378906 498.390625 175.910156 499.238281 178.460938 500.039062 C 178.871094 500.171875 179.28125 500.300781 179.691406 500.429688 C 180.660156 500.730469 181.640625 501.03125 182.621094 501.320312 C 183.910156 501.710938 185.199219 502.089844 186.5 502.449219 C 187.800781 502.820312 189.109375 503.171875 190.421875 503.519531 C 191.378906 503.78125 192.351562 504.019531 193.320312 504.269531 C 193.851562 504.398438 194.390625 504.539062 194.929688 504.671875 C 196.058594 504.941406 197.179688 505.210938 198.308594 505.46875 C 199.308594 505.699219 200.308594 505.929688 201.320312 506.140625 C 202.019531 506.300781 202.71875 506.449219 203.429688 506.589844 C 204.660156 506.851562 205.890625 507.101562 207.128906 507.339844 C 208.199219 507.550781 209.261719 507.75 210.339844 507.941406 C 211.679688 508.179688 213.03125 508.410156 214.390625 508.628906 C 215.230469 508.769531 216.078125 508.910156 216.929688 509.03125 C 217.570312 509.128906 218.21875 509.230469 218.859375 509.320312 C 219.128906 509.359375 219.398438 509.398438 219.671875 509.441406 C 220.628906 509.578125 221.589844 509.710938 222.558594 509.828125 C 223.789062 510 225.019531 510.148438 226.261719 510.289062 C 226.578125 510.328125 226.898438 510.359375 227.21875 510.398438 C 228.289062 510.519531 229.371094 510.628906 230.449219 510.738281 C 230.660156 510.761719 230.871094 510.78125 231.089844 510.800781 C 232.25 510.921875 233.421875 511.019531 234.601562 511.121094 C 236.199219 511.25 237.800781 511.371094 239.398438 511.46875 C 240.460938 511.539062 241.511719 511.601562 242.570312 511.648438 C 242.960938 511.671875 243.351562 511.691406 243.738281 511.710938 C 244.851562 511.761719 245.960938 511.808594 247.070312 511.839844 C 248.25 511.890625 249.429688 511.921875 250.609375 511.941406 C 251.238281 511.960938 251.871094 511.96875 252.511719 511.980469 C 253.671875 511.988281 254.828125 512 256 512 C 257.191406 512 258.378906 511.988281 259.570312 511.96875 C 260.011719 511.96875 260.449219 511.960938 260.890625 511.949219 C 261.769531 511.941406 262.660156 511.921875 263.539062 511.890625 C 264.628906 511.859375 265.71875 511.820312 266.808594 511.78125 C 267.078125 511.761719 267.351562 511.75 267.628906 511.738281 C 268.449219 511.699219 269.28125 511.660156 270.101562 511.621094 C 270.269531 511.609375 270.429688 511.601562 270.601562 511.589844 C 271.410156 511.539062 272.210938 511.5 273.019531 511.441406 C 273.820312 511.390625 274.621094 511.328125 275.421875 511.269531 C 276.648438 511.179688 277.871094 511.078125 279.089844 510.96875 C 279.941406 510.898438 280.789062 510.820312 281.640625 510.730469 C 281.960938 510.699219 282.289062 510.671875 282.609375 510.628906 C 283.679688 510.519531 284.75 510.410156 285.808594 510.28125 C 287.039062 510.140625 288.25 509.988281 289.46875 509.828125 C 290.351562 509.71875 291.21875 509.601562 292.101562 509.46875 C 292.109375 509.46875 292.128906 509.46875 292.140625 509.460938 C 292.820312 509.371094 293.488281 509.269531 294.160156 509.171875 C 294.378906 509.140625 294.609375 509.109375 294.828125 509.070312 C 295.988281 508.898438 297.148438 508.710938 298.300781 508.519531 C 299.648438 508.300781 300.988281 508.058594 302.320312 507.808594 C 303.589844 507.589844 304.859375 507.339844 306.121094 507.089844 C 306.898438 506.941406 307.671875 506.78125 308.441406 506.621094 C 312.289062 505.820312 316.101562 504.941406 319.878906 503.960938 C 320.640625 503.769531 321.390625 503.570312 322.140625 503.371094 C 323.648438 502.96875 325.148438 502.550781 326.648438 502.121094 C 327.398438 501.910156 328.140625 501.691406 328.890625 501.46875 C 331.910156 500.578125 334.910156 499.628906 337.878906 498.621094 C 338.539062 498.398438 339.191406 498.179688 339.839844 497.949219 C 342.070312 497.179688 344.289062 496.378906 346.488281 495.539062 C 347.78125 495.050781 349.058594 494.558594 350.339844 494.050781 C 350.660156 493.929688 350.96875 493.800781 351.28125 493.679688 C 351.839844 493.449219 352.390625 493.230469 352.941406 493 C 354.558594 492.339844 356.171875 491.660156 357.78125 490.960938 C 358.289062 490.738281 358.800781 490.519531 359.308594 490.289062 C 360.910156 489.589844 362.5 488.871094 364.078125 488.128906 C 364.578125 487.890625 365.078125 487.660156 365.578125 487.421875 C 366.53125 486.96875 367.480469 486.511719 368.429688 486.050781 C 368.949219 485.789062 369.480469 485.53125 370 485.28125 C 370.589844 484.980469 371.179688 484.679688 371.761719 484.390625 C 372.441406 484.039062 373.121094 483.691406 373.800781 483.339844 C 375.089844 482.671875 376.371094 481.988281 377.640625 481.300781 C 383.300781 478.238281 388.839844 474.96875 394.230469 471.5 C 395.300781 470.820312 396.359375 470.121094 397.421875 469.421875 C 397.5 469.371094 397.570312 469.320312 397.648438 469.269531 C 398.839844 468.480469 400.019531 467.671875 401.191406 466.859375 C 402.320312 466.078125 403.449219 465.300781 404.558594 464.5 C 404.691406 464.410156 404.820312 464.320312 404.941406 464.230469 C 405.960938 463.5 406.96875 462.761719 407.980469 462.011719 C 408.351562 461.75 408.71875 461.46875 409.078125 461.199219 C 410.101562 460.441406 411.109375 459.671875 412.121094 458.898438 C 412.210938 458.828125 412.289062 458.761719 412.371094 458.699219 C 413.449219 457.859375 414.53125 457.019531 415.601562 456.160156 C 415.671875 456.109375 415.738281 456.058594 415.800781 456 C 415.929688 455.898438 416.058594 455.789062 416.191406 455.679688 C 417.101562 454.960938 418 454.230469 418.890625 453.488281 C 419.121094 453.300781 419.351562 453.121094 419.570312 452.929688 C 420.441406 452.199219 421.308594 451.46875 422.171875 450.738281 C 423.589844 449.53125 424.988281 448.300781 426.371094 447.070312 C 427.351562 446.191406 428.320312 445.308594 429.289062 444.421875 C 431.621094 442.28125 433.910156 440.101562 436.148438 437.871094 C 436.261719 437.761719 436.371094 437.648438 436.488281 437.539062 L 436.488281 437.53125 C 430.410156 428.210938 419.898438 422.039062 407.941406 422.039062 C 395.601562 422.039062 384.800781 428.601562 378.820312 438.410156 C 373.210938 432.421875 365.21875 428.671875 356.371094 428.671875 C 354.289062 428.671875 352.261719 428.878906 350.300781 429.269531 C 348.480469 425.148438 345.929688 421.421875 342.828125 418.238281 C 336 411.238281 326.46875 406.898438 315.921875 406.898438 C 299.480469 406.898438 285.53125 417.449219 280.410156 432.128906 C 276.558594 430.511719 272.339844 429.609375 267.898438 429.609375 C 255.070312 429.609375 243.988281 437.140625 238.820312 448 C 235.269531 445.941406 231.148438 444.75 226.738281 444.75 C 222.210938 444.75 217.988281 446 214.371094 448.160156 C 206.269531 432.109375 189.648438 421.101562 170.441406 421.101562 C 150.730469 421.101562 133.738281 432.691406 125.878906 449.421875 C 119.320312 438.410156 107.308594 431.03125 93.558594 431.03125 C 86.519531 431.03125 79.929688 432.960938 74.300781 436.328125 Z M 74.300781 436.328125 " style=" stroke:none;fill-rule:nonzero;fill:rgb(42.352941%,86.27451%,17.647059%);fill-opacity:1;" />
<path d="M 98.898438 458.128906 C 99.371094 458.511719 99.839844 458.871094 100.320312 459.230469 C 100.96875 459.730469 101.621094 460.230469 102.28125 460.71875 C 103.21875 461.429688 104.160156 462.128906 105.109375 462.820312 C 105.828125 463.351562 106.558594 463.878906 107.289062 464.390625 C 109.171875 465.75 111.078125 467.070312 113 468.359375 C 113.539062 468.71875 114.078125 469.089844 114.628906 469.449219 C 122.308594 474.550781 130.289062 479.25 138.519531 483.511719 C 139.511719 484.019531 140.511719 484.53125 141.511719 485.03125 C 141.648438 485.101562 141.789062 485.171875 141.929688 485.238281 C 143.03125 485.789062 144.128906 486.328125 145.238281 486.859375 C 146.160156 487.300781 147.078125 487.738281 148 488.160156 C 148.371094 488.339844 148.738281 488.511719 149.109375 488.679688 C 150.140625 489.160156 151.179688 489.628906 152.21875 490.089844 C 152.410156 490.171875 152.601562 490.261719 152.789062 490.339844 C 153.789062 490.78125 154.789062 491.210938 155.789062 491.640625 C 157.339844 492.300781 158.890625 492.941406 160.449219 493.570312 C 161.46875 493.980469 162.5 494.390625 163.519531 494.78125 C 164.800781 495.28125 166.078125 495.761719 167.359375 496.230469 C 168.519531 496.660156 169.691406 497.089844 170.859375 497.5 C 173.378906 498.390625 175.910156 499.238281 178.460938 500.039062 C 178.871094 500.171875 179.28125 500.300781 179.691406 500.429688 C 180.660156 500.730469 181.640625 501.03125 182.621094 501.320312 C 183.910156 501.710938 185.199219 502.089844 186.5 502.449219 C 187.800781 502.820312 189.109375 503.171875 190.421875 503.519531 C 191.378906 503.78125 192.351562 504.019531 193.320312 504.269531 C 193.851562 504.398438 194.390625 504.539062 194.929688 504.671875 C 196.058594 504.941406 197.179688 505.210938 198.308594 505.46875 C 199.308594 505.699219 200.308594 505.929688 201.320312 506.140625 C 202.019531 506.300781 202.71875 506.449219 203.429688 506.589844 C 204.660156 506.851562 205.890625 507.101562 207.128906 507.339844 C 208.199219 507.550781 209.261719 507.75 210.339844 507.941406 C 211.679688 508.179688 213.03125 508.410156 214.390625 508.628906 C 215.230469 508.769531 216.078125 508.910156 216.929688 509.03125 C 217.570312 509.128906 218.21875 509.230469 218.859375 509.320312 C 219.128906 509.359375 219.398438 509.398438 219.671875 509.441406 C 220.628906 509.578125 221.589844 509.710938 222.558594 509.828125 C 223.789062 510 225.019531 510.148438 226.261719 510.289062 C 226.578125 510.328125 226.898438 510.359375 227.21875 510.398438 C 228.289062 510.519531 229.371094 510.628906 230.449219 510.738281 C 230.660156 510.761719 230.871094 510.78125 231.089844 510.800781 C 232.25 510.921875 233.421875 511.019531 234.601562 511.121094 C 236.199219 511.25 237.800781 511.371094 239.398438 511.46875 C 240.460938 511.539062 241.511719 511.601562 242.570312 511.648438 C 242.960938 511.671875 243.351562 511.691406 243.738281 511.710938 C 244.851562 511.761719 245.960938 511.808594 247.070312 511.839844 C 248.25 511.890625 249.429688 511.921875 250.609375 511.941406 C 251.238281 511.960938 251.871094 511.96875 252.511719 511.980469 C 253.671875 511.988281 254.828125 512 256 512 C 257.191406 512 258.378906 511.988281 259.570312 511.96875 C 260.011719 511.96875 260.449219 511.960938 260.890625 511.949219 C 261.769531 511.941406 262.660156 511.921875 263.539062 511.890625 C 264.628906 511.859375 265.71875 511.820312 266.808594 511.78125 C 267.078125 511.761719 267.351562 511.75 267.628906 511.738281 C 268.449219 511.699219 269.28125 511.660156 270.101562 511.621094 C 270.269531 511.609375 270.429688 511.601562 270.601562 511.589844 C 271.410156 511.539062 272.210938 511.5 273.019531 511.441406 C 273.820312 511.390625 274.621094 511.328125 275.421875 511.269531 C 276.648438 511.179688 277.871094 511.078125 279.089844 510.96875 C 279.941406 510.898438 280.789062 510.820312 281.640625 510.730469 C 281.960938 510.699219 282.289062 510.671875 282.609375 510.628906 C 283.679688 510.519531 284.75 510.410156 285.808594 510.28125 C 287.039062 510.140625 288.25 509.988281 289.46875 509.828125 C 290.351562 509.71875 291.21875 509.601562 292.101562 509.46875 C 292.109375 509.46875 292.128906 509.46875 292.140625 509.460938 C 292.820312 509.371094 293.488281 509.269531 294.160156 509.171875 C 294.378906 509.140625 294.609375 509.109375 294.828125 509.070312 C 295.988281 508.898438 297.148438 508.710938 298.300781 508.519531 C 299.648438 508.300781 300.988281 508.058594 302.320312 507.808594 C 303.589844 507.589844 304.859375 507.339844 306.121094 507.089844 C 306.898438 506.941406 307.671875 506.78125 308.441406 506.621094 C 312.289062 505.820312 316.101562 504.941406 319.878906 503.960938 C 320.640625 503.769531 321.390625 503.570312 322.140625 503.371094 C 323.648438 502.96875 325.148438 502.550781 326.648438 502.121094 C 327.398438 501.910156 328.140625 501.691406 328.890625 501.46875 C 331.910156 500.578125 334.910156 499.628906 337.878906 498.621094 C 338.539062 498.398438 339.191406 498.179688 339.839844 497.949219 C 342.070312 497.179688 344.289062 496.378906 346.488281 495.539062 C 347.78125 495.050781 349.058594 494.558594 350.339844 494.050781 C 350.660156 493.929688 350.96875 493.800781 351.28125 493.679688 C 351.839844 493.449219 352.390625 493.230469 352.941406 493 C 354.558594 492.339844 356.171875 491.660156 357.78125 490.960938 C 358.289062 490.738281 358.800781 490.519531 359.308594 490.289062 C 360.289062 489.859375 361.269531 489.421875 362.238281 488.96875 C 362.859375 488.699219 363.46875 488.421875 364.078125 488.128906 C 364.578125 487.890625 365.078125 487.660156 365.578125 487.421875 C 366.53125 486.96875 367.480469 486.511719 368.429688 486.050781 C 368.949219 485.789062 369.480469 485.53125 370 485.28125 C 370.589844 484.980469 371.179688 484.679688 371.761719 484.390625 C 372.441406 484.039062 373.121094 483.691406 373.800781 483.339844 C 375.089844 482.671875 376.371094 481.988281 377.640625 481.300781 C 383.300781 478.238281 388.839844 474.96875 394.230469 471.5 C 395.300781 470.820312 396.359375 470.121094 397.421875 469.421875 C 397.5 469.371094 397.570312 469.320312 397.648438 469.269531 C 398.839844 468.480469 400.019531 467.671875 401.191406 466.859375 C 402.320312 466.078125 403.449219 465.300781 404.558594 464.5 C 404.691406 464.410156 404.820312 464.320312 404.941406 464.230469 C 405.960938 463.5 406.96875 462.761719 407.980469 462.011719 C 408.351562 461.75 408.71875 461.46875 409.078125 461.199219 C 410.101562 460.441406 411.109375 459.671875 412.121094 458.898438 C 412.210938 458.828125 412.289062 458.761719 412.371094 458.699219 C 413.449219 457.859375 414.53125 457.019531 415.601562 456.160156 C 415.671875 456.109375 415.738281 456.058594 415.800781 456 C 410.429688 451.789062 403.679688 449.28125 396.328125 449.28125 C 384.890625 449.28125 374.878906 455.359375 369.339844 464.460938 C 366.101562 461.011719 362.011719 458.351562 357.398438 456.839844 C 354.609375 455.921875 351.621094 455.421875 348.519531 455.421875 C 346.589844 455.421875 344.710938 455.621094 342.898438 455.980469 C 337.46875 443.769531 325.25 435.25 311.019531 435.25 C 295.78125 435.25 282.851562 445.019531 278.101562 458.628906 C 274.53125 457.128906 270.621094 456.300781 266.5 456.300781 C 254.609375 456.300781 244.339844 463.269531 239.550781 473.339844 C 236.261719 471.429688 232.429688 470.339844 228.351562 470.339844 C 224.148438 470.339844 220.238281 471.488281 216.878906 473.488281 C 209.371094 458.621094 193.960938 448.410156 176.148438 448.410156 C 157.878906 448.410156 142.140625 459.148438 134.851562 474.660156 C 128.769531 464.460938 117.628906 457.621094 104.878906 457.621094 C 102.839844 457.621094 100.839844 457.800781 98.898438 458.128906 Z M 98.898438 458.128906 " style=" stroke:none;fill-rule:nonzero;fill:rgb(0%,62.745098%,25.882353%);fill-opacity:1;" />
<path d="M 148 488.160156 C 148.371094 488.339844 148.738281 488.511719 149.109375 488.679688 C 150.140625 489.160156 151.179688 489.628906 152.21875 490.089844 C 152.410156 490.171875 152.601562 490.261719 152.789062 490.339844 C 153.789062 490.78125 154.789062 491.210938 155.789062 491.640625 C 157.339844 492.300781 158.890625 492.941406 160.449219 493.570312 C 161.46875 493.980469 162.5 494.390625 163.519531 494.78125 C 164.800781 495.28125 166.078125 495.761719 167.359375 496.230469 C 168.519531 496.660156 169.691406 497.089844 170.859375 497.5 C 173.378906 498.390625 175.910156 499.238281 178.460938 500.039062 C 178.871094 500.171875 179.28125 500.300781 179.691406 500.429688 C 180.660156 500.730469 181.640625 501.03125 182.621094 501.320312 C 183.910156 501.710938 185.199219 502.089844 186.5 502.449219 C 187.800781 502.820312 189.109375 503.171875 190.421875 503.519531 C 191.378906 503.78125 192.351562 504.019531 193.320312 504.269531 C 193.851562 504.398438 194.390625 504.539062 194.929688 504.671875 C 196.058594 504.941406 197.179688 505.210938 198.308594 505.46875 C 199.308594 505.699219 200.308594 505.929688 201.320312 506.140625 C 202.019531 506.300781 202.71875 506.449219 203.429688 506.589844 C 204.660156 506.851562 205.890625 507.101562 207.128906 507.339844 C 208.199219 507.550781 209.261719 507.75 210.339844 507.941406 C 211.679688 508.179688 213.03125 508.410156 214.390625 508.628906 C 215.230469 508.769531 216.078125 508.910156 216.929688 509.03125 C 217.570312 509.128906 218.21875 509.230469 218.859375 509.320312 C 219.128906 509.359375 219.398438 509.398438 219.671875 509.441406 C 220.628906 509.578125 221.589844 509.710938 222.558594 509.828125 C 223.789062 510 225.019531 510.148438 226.261719 510.289062 C 226.578125 510.328125 226.898438 510.359375 227.21875 510.398438 C 228.289062 510.519531 229.371094 510.628906 230.449219 510.738281 C 230.660156 510.761719 230.871094 510.78125 231.089844 510.800781 C 232.25 510.921875 233.421875 511.019531 234.601562 511.121094 C 236.199219 511.25 237.800781 511.371094 239.398438 511.46875 C 240.460938 511.539062 241.511719 511.601562 242.570312 511.648438 C 242.960938 511.671875 243.351562 511.691406 243.738281 511.710938 C 244.851562 511.761719 245.960938 511.808594 247.070312 511.839844 C 248.25 511.890625 249.429688 511.921875 250.609375 511.941406 C 251.238281 511.960938 251.871094 511.96875 252.511719 511.980469 C 253.671875 511.988281 254.828125 512 256 512 C 257.191406 512 258.378906 511.988281 259.570312 511.96875 C 260.011719 511.96875 260.449219 511.960938 260.890625 511.949219 C 261.769531 511.941406 262.660156 511.921875 263.539062 511.890625 C 264.628906 511.859375 265.71875 511.820312 266.808594 511.78125 C 267.078125 511.761719 267.351562 511.75 267.628906 511.738281 C 268.449219 511.699219 269.28125 511.660156 270.101562 511.621094 C 270.269531 511.609375 270.429688 511.601562 270.601562 511.589844 C 271.410156 511.539062 272.210938 511.5 273.019531 511.441406 C 273.820312 511.390625 274.621094 511.328125 275.421875 511.269531 C 276.648438 511.179688 277.871094 511.078125 279.089844 510.96875 C 279.941406 510.898438 280.789062 510.820312 281.640625 510.730469 C 281.960938 510.699219 282.289062 510.671875 282.609375 510.628906 C 283.679688 510.519531 284.75 510.410156 285.808594 510.28125 C 287.039062 510.140625 288.25 509.988281 289.46875 509.828125 C 290.351562 509.71875 291.21875 509.601562 292.101562 509.46875 C 292.109375 509.46875 292.128906 509.46875 292.140625 509.460938 C 292.820312 509.371094 293.488281 509.269531 294.160156 509.171875 C 294.378906 509.140625 294.609375 509.109375 294.828125 509.070312 C 295.988281 508.898438 297.148438 508.710938 298.300781 508.519531 C 299.648438 508.300781 300.988281 508.058594 302.320312 507.808594 C 303.589844 507.589844 304.859375 507.339844 306.121094 507.089844 C 306.898438 506.941406 307.671875 506.78125 308.441406 506.621094 C 312.289062 505.820312 316.101562 504.941406 319.878906 503.960938 C 320.640625 503.769531 321.390625 503.570312 322.140625 503.371094 C 323.648438 502.96875 325.148438 502.550781 326.648438 502.121094 C 327.398438 501.910156 328.140625 501.691406 328.890625 501.46875 C 331.910156 500.578125 334.910156 499.628906 337.878906 498.621094 C 338.539062 498.398438 339.191406 498.179688 339.839844 497.949219 C 342.070312 497.179688 344.289062 496.378906 346.488281 495.539062 C 347.78125 495.050781 349.058594 494.558594 350.339844 494.050781 C 350.660156 493.929688 350.96875 493.800781 351.28125 493.679688 C 351.839844 493.449219 352.390625 493.230469 352.941406 493 C 354.558594 492.339844 356.171875 491.660156 357.78125 490.960938 C 358.289062 490.738281 358.800781 490.519531 359.308594 490.289062 C 360.289062 489.859375 361.269531 489.421875 362.238281 488.96875 C 360.710938 488.128906 359.078125 487.421875 357.398438 486.871094 C 354.609375 485.941406 351.621094 485.441406 348.519531 485.441406 C 346.589844 485.441406 344.710938 485.640625 342.898438 486 C 337.46875 473.800781 325.25 465.28125 311.019531 465.28125 C 295.78125 465.28125 282.851562 475.039062 278.101562 488.660156 C 274.53125 487.160156 270.621094 486.320312 266.5 486.320312 C 254.609375 486.320312 244.339844 493.300781 239.550781 503.371094 C 236.261719 501.449219 232.429688 500.371094 228.351562 500.371094 C 224.148438 500.371094 220.238281 501.519531 216.878906 503.519531 C 209.371094 488.640625 193.960938 478.429688 176.148438 478.429688 C 165.519531 478.429688 155.75 482.058594 148 488.160156 Z M 148 488.160156 " style=" stroke:none;fill-rule:nonzero;fill:rgb(1.176471%,44.705882%,18.823529%);fill-opacity:1;" />
</g>
</svg>